<?xml version="1.0" encoding="UTF-8"?>
<svg width="340px" height="69px" viewBox="0 0 340 69" version="1.1" xmlns="http://www.w3.org/2000/svg" xmlns:xlink="http://www.w3.org/1999/xlink">
    <title>Group 26</title>
    <g id="New-design-2021" stroke="none" stroke-width="1" fill="none" fill-rule="evenodd">
        <g id="Product-STARKNET-|-current-colors" transform="translate(-127.000000, -467.000000)">
            <g id="Group-26" transform="translate(127.000000, 467.000000)">
                <g id="Group-16" transform="translate(0.000000, 0.718600)">
                    <g id="Group-3" fill="#29296E">
                        <path d="M67.7185,34.1407 C67.7185,52.8407 52.5595,67.9997 33.8595,67.9997 C15.1595,67.9997 -0.0005,52.8407 -0.0005,34.1407 C-0.0005,15.4407 15.1595,0.2817 33.8595,0.2817 C52.5595,0.2817 67.7185,15.4407 67.7185,34.1407" id="Fill-1"></path>
                    </g>
                    <path d="M49.6154,25.0875 L48.7544,22.4275 C48.5794,21.8865 48.1524,21.4655 47.6094,21.2995 L44.9364,20.4775 C44.5664,20.3645 44.5634,19.8425 44.9304,19.7235 L47.5914,18.8625 C48.1314,18.6875 48.5524,18.2605 48.7194,17.7175 L49.5404,15.0445 C49.6534,14.6755 50.1754,14.6715 50.2944,15.0395 L51.1554,17.6995 C51.3304,18.2395 51.7574,18.6605 52.3004,18.8275 L54.9734,19.6485 C55.3434,19.7625 55.3474,20.2835 54.9794,20.4025 L52.3184,21.2635 C51.7784,21.4385 51.3574,21.8665 51.1904,22.4095 L50.3694,25.0815 C50.2564,25.4515 49.7344,25.4555 49.6154,25.0875" id="Fill-4" fill="#FAFAFA"></path>
                    <path d="M3.0787,33.6042 C3.8837,32.0272 5.4757,30.8392 7.1297,30.0882 C8.8007,29.3452 10.6377,28.8892 12.4417,28.7412 C16.0837,28.4122 19.6317,29.0212 22.8637,30.0742 C24.5287,30.5702 26.0187,31.2592 27.5577,31.9552 C28.3057,32.3152 29.0087,32.7232 29.7327,33.1172 L31.7327,34.2762 C33.9287,35.6222 36.0577,36.8142 38.0577,37.7402 C40.0627,38.6582 41.8747,39.2792 43.5827,39.5962 C45.2907,39.9172 47.0267,39.9132 49.1617,39.4232 C51.2797,38.9442 53.6627,37.9112 56.1537,36.5862 C58.6597,35.2602 61.2297,33.6342 64.1617,32.0452 C63.8677,35.3662 62.9277,38.4802 61.4597,41.4872 C59.9557,44.4582 57.8637,47.3562 54.8137,49.7032 C51.8217,52.0692 47.7127,53.7182 43.5297,53.9662 C39.3447,54.2492 35.3637,53.3272 31.9767,51.9402 C28.5767,50.5332 25.6387,48.6842 23.0347,46.6432 C22.3157,46.0792 21.9297,45.7592 21.3987,45.3102 L19.9157,44.0112 C18.9167,43.2292 17.9487,42.2942 16.9597,41.5192 C14.9867,39.8702 13.0347,38.2182 10.8947,36.7862 C9.8157,36.0582 8.7027,35.3832 7.4407,34.7852 C6.8137,34.4962 6.1477,34.2272 5.4327,34.0152 C4.7007,33.7762 3.9567,33.6342 3.0787,33.6042" id="Fill-6" fill="#FF4F0A"></path>
                    <path d="M3.0787,33.6042 C3.4897,30.1872 5.0827,26.9822 7.6357,24.2542 C10.1757,21.5522 14.1437,19.4692 18.5467,19.1932 C20.7197,19.0482 22.9257,19.2902 24.9537,19.8522 C26.9727,20.4122 28.8647,21.2282 30.5697,22.1892 C31.4217,22.6722 32.2187,23.2002 33.0127,23.7332 L35.1287,25.3352 L38.4317,27.9412 C40.5757,29.6482 42.6217,31.2272 44.5127,32.5312 C46.4217,33.8372 48.0477,34.7912 49.6007,35.3502 C51.1397,35.9602 53.0837,36.1162 55.6537,35.4702 C56.9297,35.1762 58.2607,34.6392 59.6807,34.0572 C61.0927,33.4612 62.5587,32.7502 64.1617,32.0452 C63.9687,33.7632 63.6197,35.4742 62.9567,37.0732 C62.3197,38.6942 61.4807,40.2802 60.3077,41.7592 C59.7077,42.4792 59.0647,43.2032 58.3147,43.8712 C57.5647,44.5232 56.7337,45.1422 55.8157,45.6852 C53.9847,46.7462 51.8127,47.5212 49.5847,47.7972 C47.3567,48.0772 45.1197,47.9372 43.0827,47.5052 C41.0347,47.0852 39.1687,46.4082 37.4557,45.6262 C34.0417,44.0382 31.1857,42.0422 28.6607,39.9292 C27.3927,38.8742 26.2037,37.7722 25.0777,36.6532 L23.7477,35.3182 C23.3467,34.9312 22.9417,34.5422 22.5407,34.1862 C20.9247,32.7572 19.4247,31.6652 17.7727,30.9842 C16.1327,30.2712 14.0337,29.9782 11.4587,30.4602 C8.8937,30.9372 6.0797,32.0462 3.0787,33.6042" id="Fill-8" fill="#FAFAFA"></path>
                    <path d="M16.6108,51.2249 C16.6108,52.2359 15.7908,53.0559 14.7798,53.0559 C13.7688,53.0559 12.9498,52.2359 12.9498,51.2249 C12.9498,50.2139 13.7688,49.3939 14.7798,49.3939 C15.7908,49.3939 16.6108,50.2139 16.6108,51.2249" id="Fill-10" fill="#FAFAFA"></path>
                    <path d="M16.6108,51.2249 C16.6108,52.2359 15.7908,53.0559 14.7798,53.0559 C13.7688,53.0559 12.9498,52.2359 12.9498,51.2249 C12.9498,50.2139 13.7688,49.3939 14.7798,49.3939 C15.7908,49.3939 16.6108,50.2139 16.6108,51.2249" id="Fill-12" fill="#FAFAFA"></path>
                    <path d="M118.1996,35.0647 C116.9676,34.2617 114.7316,33.2487 111.4916,32.0257 C108.2506,30.8027 106.0016,29.7047 104.7426,28.7317 C103.4846,27.7587 102.8546,26.4147 102.8546,24.7007 C102.8546,22.9867 103.4926,21.6347 104.7696,20.6437 C106.0456,19.6527 107.7286,19.1577 109.8176,19.1577 C111.9066,19.1577 113.6066,19.7247 114.9186,20.8577 C116.2316,21.9917 116.8876,23.6027 116.8876,25.6917 L122.0026,25.6917 C122.0026,22.1037 120.8146,19.2957 118.4406,17.2697 C116.0656,15.2437 113.2056,14.2307 109.8576,14.2307 C106.5106,14.2307 103.6666,15.1717 101.3286,17.0557 C98.9896,18.9397 97.8206,21.4697 97.8206,24.6477 C97.8206,27.1117 98.4266,29.0657 99.6416,30.5127 C100.2836,31.2797 100.8996,31.9277 101.4886,32.4537 C102.0786,32.9807 103.3186,33.7037 105.2116,34.6227 C107.1036,35.5427 108.7106,36.1627 110.0316,36.4837 C112.5746,37.5757 114.6596,38.4657 115.9906,39.4297 C117.3196,40.3937 117.9856,41.7197 117.9856,43.4067 C117.9856,45.0937 117.2936,46.4557 115.9096,47.4907 C114.5266,48.5257 112.6166,49.0437 110.1796,49.0437 C107.7426,49.0437 105.7556,48.4327 104.2206,47.2097 C102.6846,45.9867 101.9176,44.2417 101.9176,41.9737 L96.8296,41.9737 C96.8296,45.7767 98.1366,48.7407 100.7526,50.8647 C103.3676,52.9897 106.5236,54.0517 110.2196,54.0517 C113.9146,54.0517 116.9856,53.0787 119.4316,51.1327 C121.8776,49.1867 123.0866,46.5357 123.0606,43.1787 C123.0336,39.8227 121.4136,37.1177 118.1996,35.0647" id="Fill-14" fill="#26296E"></path>
                </g>
                <polygon id="Fill-17" fill="#26296E" points="152.0685 16.0284 126.8245 16.0284 126.8245 20.8284 136.9275 20.8284 136.9275 54.0544 141.9125 54.0544 141.9125 20.8284 152.0685 20.8284"></polygon>
                <path d="M165.2209,16.0284 L151.1929,54.0544 L156.5759,54.0544 C156.5759,54.0544 157.9429,49.8234 159.0519,48.0934 C163.8709,40.5824 171.8829,39.6664 174.4579,39.7354 L179.5929,54.0544 L184.9759,54.0544 L170.9219,16.0284 L165.2209,16.0284 Z M162.1629,38.4774 L168.0849,21.9684 L172.7249,34.9044 C170.0789,35.0984 166.2219,35.8944 162.1629,38.4774 L162.1629,38.4774 Z" id="Fill-18" fill="#26296E"></path>
                <polygon id="Fill-20" fill="#26296E" points="250.6577 16.0284 244.4527 16.0284 228.5957 33.2644 228.5957 16.0284 223.5577 16.0284 223.5577 54.0544 228.5957 54.0544 228.5957 35.8104 245.0097 54.0544 251.1877 54.0544 233.8727 34.5644"></polygon>
                <polygon id="Fill-21" fill="#26296E" points="275.6633 39.4961 260.8403 16.0281 255.1393 16.0281 255.1393 54.0541 262.6433 54.0541 262.6433 30.5331 277.4133 54.0541 283.1143 54.0541 283.1143 16.0281 275.6633 16.0281"></polygon>
                <polygon id="Fill-22" fill="#26296E" points="295.2564 38.3558 308.6744 38.3558 308.6744 31.3558 295.2564 31.3558 295.2564 23.2148 310.0264 23.2148 310.0264 16.0288 287.7524 16.0288 287.7524 54.0538 310.2914 54.0538 310.2914 46.8948 295.2564 46.8948"></polygon>
                <polygon id="Fill-23" fill="#26296E" points="314.1423 16.0281 314.1423 23.2151 323.2633 23.2151 323.2633 54.0541 330.7423 54.0541 330.7423 23.2151 339.9163 23.2151 339.9163 16.0281"></polygon>
                <path d="M207.7936,40.3648 C207.0256,39.6548 206.2466,39.0378 205.4656,38.4948 C207.9176,38.1328 210.5596,36.7928 212.2606,34.6168 C213.8116,32.6338 214.4886,30.3208 214.4886,27.8288 C214.4886,24.5578 213.3306,21.7738 211.0146,19.4758 C208.6986,17.1778 205.9146,16.0288 202.6616,16.0288 L188.8196,16.0288 L188.8196,54.0538 L193.8576,54.0538 L193.8576,39.7138 C196.6126,39.7778 200.7096,40.4728 204.4756,43.9528 C208.0866,47.2948 210.5816,51.4468 211.8666,54.0518 L217.2176,54.0518 C216.1096,51.1738 212.9346,45.1188 207.7936,40.3648 L207.7936,40.3648 Z M202.6616,20.7748 C204.5356,20.7748 206.1356,21.4608 207.4616,22.8298 C208.7876,24.1998 209.4496,25.8618 209.4496,27.8148 C209.4496,29.7688 208.8076,31.4638 207.4616,32.8398 C205.0606,35.2938 199.5116,34.8048 194.0066,34.8298 C193.9566,34.8288 193.9066,34.8268 193.8576,34.8258 L193.8576,20.7748 L202.6616,20.7748 Z" id="Fill-24" fill="#26296E"></path>
            </g>
        </g>
    </g>
</svg>